<?xml version="1.0" encoding="utf-8"?>
<!-- Generator: Adobe Illustrator 23.0.1, SVG Export Plug-In . SVG Version: 6.00 Build 0)  -->
<svg version="1.1" id="Layer_1" xmlns="http://www.w3.org/2000/svg" xmlns:xlink="http://www.w3.org/1999/xlink" x="0px" y="0px"
	 viewBox="0 0 280 280" style="enable-background:new 0 0 280 280;" xml:space="preserve">
<style type="text/css">
	.st0{fill:#54BFE9;}
</style>
<title>Columns</title>
<g>
	<g id="Capa_1">
		<path class="st0" d="M231,8.9H49c-18.2,0-33,14.8-33,33v23.2h248V41.9C264,23.7,249.2,8.9,231,8.9z"/>
		<path d="M228.5,1.9h-177C28.1,1.9,9,20.9,9,44.4v191.2c0,23.5,19,42.5,42.5,42.5h177c23.5,0,42.5-19,42.5-42.5V44.4
			C271,21,252,1.9,228.5,1.9z M51.5,15.9h177c15.7,0,28.4,12.8,28.5,28.5v18.7H23V44.4C23,28.7,35.8,16,51.5,15.9L51.5,15.9z
			 M172,76.1v188h-64v-188H172z M23,235.6V76.1h72v188H51.5C35.8,264,23,251.3,23,235.6z M228.6,264.1H185v-188h72v159.5
			C257,251.3,244.2,264.1,228.6,264.1L228.6,264.1z"/>
	</g>
</g>
</svg>
