<?xml version="1.0" encoding="utf-8"?>
<!-- Generator: Adobe Illustrator 23.0.1, SVG Export Plug-In . SVG Version: 6.00 Build 0)  -->
<svg version="1.1" id="Layer_1" xmlns="http://www.w3.org/2000/svg" xmlns:xlink="http://www.w3.org/1999/xlink" x="0px" y="0px"
	 viewBox="0 0 280 280" style="enable-background:new 0 0 280 280;" xml:space="preserve">
<style type="text/css">
	.st0{fill:#54BFE9;}
</style>
<title>Export</title>
<g>
	<g id="Capa_1">
		<polygon class="st0" points="90.9,7.3 39.4,62.1 39.4,67.7 77.6,67.7 92.7,65.4 99.4,53.1 99.4,7.3 		"/>
		<path d="M209.2,2.5H85.7L31.1,59.1v178.6c0,22,17.8,39.7,39.8,39.8h138.3c22,0,39.7-17.8,39.8-39.8V42.3
			C248.9,20.4,231.1,2.6,209.2,2.5z M91.4,15.8h0.7v33.9c0,6.9-5.6,12.4-12.5,12.4c0,0,0,0,0,0h-33L91.4,15.8z M235.7,237.7
			c0,14.6-11.9,26.5-26.5,26.5H70.8c-14.6,0-26.5-11.9-26.5-26.5V75.4h35.3c14.2,0,25.7-11.5,25.7-25.7V15.8h103.9
			c14.6,0,26.5,11.9,26.5,26.5L235.7,237.7z"/>
		<path d="M135.7,165.8c2.6,2.5,6.7,2.5,9.3-0.1L179,132c2.6-2.6,2.5-6.8-0.1-9.4c-2.6-2.5-6.6-2.5-9.2,0l-23,22.9V83.4
			c0-3.7-3-6.6-6.6-6.6s-6.6,3-6.6,6.6V145l-23-22.4c-2.6-2.6-6.8-2.6-9.4,0c-2.6,2.6-2.6,6.8,0,9.4c0,0,0.1,0.1,0.1,0.1
			L135.7,165.8z"/>
		<path d="M176.1,190h-72.2c-3.7,0-6.6,3-6.6,6.6c0,3.7,3,6.6,6.6,6.6h72.2c3.7,0,6.6-3,6.6-6.6C182.7,192.9,179.7,190,176.1,190
			C176.1,190,176.1,190,176.1,190z"/>
	</g>
</g>
</svg>
