<?xml version="1.0" encoding="utf-8"?>
<!-- Generator: Adobe Illustrator 23.0.1, SVG Export Plug-In . SVG Version: 6.00 Build 0)  -->
<svg version="1.1" id="Layer_1" xmlns="http://www.w3.org/2000/svg" xmlns:xlink="http://www.w3.org/1999/xlink" x="0px" y="0px"
	 viewBox="0 0 280 280" style="enable-background:new 0 0 280 280;" xml:space="preserve">
<style type="text/css">
	.st0{fill:#54BFE9;}
</style>
<title>Filters</title>
<g>
	<g id="Capa_1">
		<path class="st0" d="M35,9.7h210c10.7,0,19.3,8.6,19.3,19.3c0,0,0,0,0,0v33.3l0,0H15.7l0,0V29C15.7,18.3,24.3,9.7,35,9.7z"/>
		<path d="M270.7,26.7C269.5,13.4,258.4,3.2,245,3.2H35c-13.4,0-24.5,10.2-25.7,23.5H9.2v37c0,6.7,2.9,13.1,7.9,17.6l92.1,80.7
			v108.4c0,3.6,3,6.5,6.6,6.5c1.5,0,2.9-0.5,4.1-1.5l48.7-40c1.5-1.2,2.4-3.1,2.4-5v-68.4l92.1-80.7c5.1-4.4,8-10.8,8-17.5v-37
			L270.7,26.7z M35,16.2h210c7.1,0,12.8,5.7,12.8,12.8v26.7c0,0.1-0.1,0.1-0.1,0.1l0,0H22.3c-0.1,0-0.1-0.1-0.1-0.1l0,0V29
			C22.2,21.9,27.9,16.2,35,16.2z M254.3,71.4L160,154.1c-1.4,1.2-2.2,3-2.2,4.9v68.3l-35.7,29.3V159c0-1.9-0.8-3.7-2.2-4.9
			L25.7,71.4c-0.8-0.7-1.6-1.6-2.1-2.6h232.9C255.9,69.8,255.2,70.7,254.3,71.4z"/>
	</g>
</g>
</svg>
